<svg xmlns="http://www.w3.org/2000/svg" viewBox="0 0 200 160" role="img" aria-labelledby="title desc">
<title id="title">Hands Holding a Candle</title>
<desc id="desc">Two stylized hands cupping a lit candle symbolizing hope and compassion.</desc>
<rect width="200" height="160" fill="#f5f9fc" rx="12"/>
<path d="M60 120c-6-20 4-32 20-40l20-10 20 10c16 8 26 20 20 40-24 8-56 8-80 0z" fill="#87c5e8" opacity="0.35"/>
<path d="M70 118c-6-16 2-26 16-32l24-10 24 10c14 6 22 16 16 32-28 10-52 10-80 0z" fill="#2d6a8e" opacity="0.15"/>
<rect x="94" y="60" width="12" height="38" rx="2" fill="#fff" stroke="#2d6a8e" stroke-width="2"/>
<path d="M100 60c-2-6 2-12 4-16 2 4 4 8 2 14" fill="#f4d35e" stroke="#dcae1d" stroke-width="2" stroke-linejoin="round"/>
<path d="M100 60l4-4" stroke="#dcae1d" stroke-linecap="round"/>
<path d="M82 96c10 6 26 6 36 0" stroke="#2d6a8e" stroke-width="2" stroke-linecap="round"/>
</svg>